<mxfile host="app.diagrams.net" modified="2023-12-01T07:33:01.061Z" agent="Mozilla/5.0 (Windows NT 10.0; Win64; x64) AppleWebKit/537.36 (KHTML, like Gecko) Chrome/119.0.0.0 Safari/537.36" etag="9g5c6xL8GCxnvuuNjPwo" version="22.1.5" type="google">
  <diagram name="시스템구성도" id="V5MKhGaJNv1O908Wm5-5">
    <mxGraphModel grid="1" page="1" gridSize="10" guides="1" tooltips="1" connect="1" arrows="1" fold="1" pageScale="1" pageWidth="827" pageHeight="1169" math="0" shadow="0">
      <root>
        <mxCell id="0" />
        <mxCell id="1" parent="0" />
        <mxCell id="IXQjAg93TRmVaCYCpcYk-47" value="" style="rounded=1;whiteSpace=wrap;html=1;arcSize=6;strokeColor=#CCCCCC;" vertex="1" parent="1">
          <mxGeometry x="580" y="560" width="200" height="170" as="geometry" />
        </mxCell>
        <mxCell id="IXQjAg93TRmVaCYCpcYk-44" value="" style="rounded=1;whiteSpace=wrap;html=1;arcSize=6;strokeColor=#CCCCCC;" vertex="1" parent="1">
          <mxGeometry x="550" y="538" width="200" height="170" as="geometry" />
        </mxCell>
        <mxCell id="IXQjAg93TRmVaCYCpcYk-28" value="" style="rounded=1;whiteSpace=wrap;html=1;arcSize=4;strokeColor=#CCCCCC;" vertex="1" parent="1">
          <mxGeometry x="140" y="230" width="350" height="200" as="geometry" />
        </mxCell>
        <mxCell id="IXQjAg93TRmVaCYCpcYk-27" value="" style="rounded=1;whiteSpace=wrap;html=1;arcSize=4;strokeColor=#CCCCCC;" vertex="1" parent="1">
          <mxGeometry x="110" y="213.26" width="350" height="200" as="geometry" />
        </mxCell>
        <mxCell id="IXQjAg93TRmVaCYCpcYk-1" value="&lt;b style=&quot;border-color: var(--border-color);&quot;&gt;데이터 저장 서버 (AWS)&lt;/b&gt;&lt;br&gt;&lt;br&gt;&lt;br&gt;&lt;br&gt;&lt;br&gt;&lt;br&gt;&lt;br&gt;&lt;br&gt;" style="rounded=1;whiteSpace=wrap;html=1;arcSize=6;" vertex="1" parent="1">
          <mxGeometry x="110" y="720" width="250" height="150" as="geometry" />
        </mxCell>
        <mxCell id="IXQjAg93TRmVaCYCpcYk-4" value="&lt;b&gt;유해 조수 탐지 및 퇴치 장치&lt;/b&gt;&lt;br&gt;&lt;br&gt;&lt;br&gt;&lt;br&gt;&lt;br&gt;&lt;br&gt;&lt;br&gt;&lt;br&gt;&lt;br&gt;&lt;br&gt;&lt;br&gt;&lt;br&gt;&lt;br&gt;" style="rounded=1;whiteSpace=wrap;html=1;arcSize=4;" vertex="1" parent="1">
          <mxGeometry x="80" y="200" width="350" height="200" as="geometry" />
        </mxCell>
        <mxCell id="IXQjAg93TRmVaCYCpcYk-7" value="&lt;b style=&quot;border-color: var(--border-color);&quot;&gt;사용자 UI 프로그램&lt;/b&gt;&lt;br style=&quot;border-color: var(--border-color);&quot;&gt;&lt;br&gt;&lt;br&gt;&lt;br&gt;&lt;br&gt;&lt;br&gt;&lt;br&gt;&lt;br&gt;&lt;br&gt;&lt;br&gt;" style="rounded=1;whiteSpace=wrap;html=1;arcSize=6;" vertex="1" parent="1">
          <mxGeometry x="521" y="520" width="199" height="170" as="geometry" />
        </mxCell>
        <mxCell id="IXQjAg93TRmVaCYCpcYk-8" value="&lt;font style=&quot;font-size: 18px;&quot;&gt;Internet&lt;/font&gt;" style="ellipse;shape=cloud;whiteSpace=wrap;html=1;" vertex="1" parent="1">
          <mxGeometry x="173.14" y="490" width="296.86" height="180" as="geometry" />
        </mxCell>
        <mxCell id="IXQjAg93TRmVaCYCpcYk-9" value="유해 조수 탐지 및 퇴치 시스템 구성도" style="text;html=1;strokeColor=none;fillColor=none;align=left;verticalAlign=middle;whiteSpace=wrap;rounded=0;fontSize=15;fontStyle=1" vertex="1" parent="1">
          <mxGeometry x="80" y="80" width="290" height="30" as="geometry" />
        </mxCell>
        <mxCell id="IXQjAg93TRmVaCYCpcYk-10" value="ID 1" style="text;html=1;strokeColor=none;fillColor=none;align=center;verticalAlign=middle;whiteSpace=wrap;rounded=0;" vertex="1" parent="1">
          <mxGeometry x="380" y="173" width="60" height="30" as="geometry" />
        </mxCell>
        <mxCell id="IXQjAg93TRmVaCYCpcYk-11" value="ID 2" style="text;html=1;strokeColor=none;fillColor=none;align=center;verticalAlign=middle;whiteSpace=wrap;rounded=0;" vertex="1" parent="1">
          <mxGeometry x="420" y="190" width="60" height="30" as="geometry" />
        </mxCell>
        <mxCell id="IXQjAg93TRmVaCYCpcYk-12" value="ID ..." style="text;html=1;strokeColor=none;fillColor=none;align=center;verticalAlign=middle;whiteSpace=wrap;rounded=0;" vertex="1" parent="1">
          <mxGeometry x="450" y="204.54" width="60" height="30" as="geometry" />
        </mxCell>
        <mxCell id="IXQjAg93TRmVaCYCpcYk-14" value="" style="shape=curlyBracket;whiteSpace=wrap;html=1;rounded=1;labelPosition=left;verticalLabelPosition=middle;align=right;verticalAlign=middle;" vertex="1" parent="1">
          <mxGeometry x="521" y="221.5" width="20" height="160" as="geometry" />
        </mxCell>
        <mxCell id="IXQjAg93TRmVaCYCpcYk-15" value="&lt;div style=&quot;text-align: left;&quot;&gt;&lt;span style=&quot;background-color: initial;&quot;&gt;Computer :&amp;nbsp;&lt;/span&gt;&lt;/div&gt;&lt;div style=&quot;text-align: left;&quot;&gt;&lt;span style=&quot;background-color: initial;&quot;&gt;Camera :&amp;nbsp;&lt;/span&gt;&lt;/div&gt;&lt;div style=&quot;text-align: left;&quot;&gt;&lt;span style=&quot;background-color: initial;&quot;&gt;AI Model :&amp;nbsp;&lt;/span&gt;&lt;/div&gt;" style="text;html=1;strokeColor=none;fillColor=none;align=center;verticalAlign=middle;whiteSpace=wrap;rounded=0;" vertex="1" parent="1">
          <mxGeometry x="530" y="238.5" width="110" height="100" as="geometry" />
        </mxCell>
        <mxCell id="IXQjAg93TRmVaCYCpcYk-22" value="카메라 및 퇴치&lt;br&gt;&amp;nbsp;장치&lt;br&gt;&lt;br&gt;&lt;br&gt;&lt;br&gt;&lt;br&gt;&lt;br&gt;&lt;br&gt;&lt;br&gt;(Pan Tilt Control)" style="rounded=1;whiteSpace=wrap;html=1;arcSize=8;" vertex="1" parent="1">
          <mxGeometry x="94" y="234" width="100" height="156" as="geometry" />
        </mxCell>
        <mxCell id="IXQjAg93TRmVaCYCpcYk-18" value="" style="shape=image;verticalLabelPosition=bottom;labelBackgroundColor=default;verticalAlign=top;aspect=fixed;imageAspect=0;image=data:image/png,iVBORw0KGgoAAAANSUhEUgAAAIAAAACACAYAAADDPmHLAAAABHNCSVQICAgIfAhkiAAAAAlwSFlzAAADsQAAA7EB9YPtSQAAABl0RVh0U29mdHdhcmUAd3d3Lmlua3NjYXBlLm9yZ5vuPBoAACAASURBVHic7Z15dFzXedh/9y2zzwCDleACUiTFDSApkpIlkpKs1ZIcuXIcy02P0zhp0iY5SXO6pnXSnGZPfJImTuTGThPb6qnjJHVi2XFqK7YsKSJAWqZISgRAUhIBcQexDzDLm3nLvf3jDQYAMQCxEpA1v3NwCOK9ue++ud/7vu9+33fvgwoVKlSoUKFChQoVKlSoUKFChQoVKlSoUKFChQoVKvxgIla6A7Nx+PD2uMgbSSRJiaxyDO2t48e7rq90v36QWHYBOHjwYFjLDyeRelIYIoki6SmSaCIpFEmUTCJEEkgKRVIKkgKSQC0QKNNkr0C0KdQLwlPt7W+cOQOo5b6PH1TmIwDi3r07bvc0swmhalAkhSaTKH/wEMUBhKQQJFH4fwdjMd0TQkOggdCQ0qbMWPsCoeQRlDiy7vZdHV/5yle8hV/zvcVNBeDe3buTypC/hOAnFKxZyCXGB1EIHdDR0Py/CQ3Qi8eKvwsdTWgI5Q/6FJTCI48nx38sFPLGC44paNcQbSCPmInc8ZdfvpCff7/fG8wqAIf27bwfoX0FaAAQQkOpaV84AJowMbQYhhaB2QZxCVEolLTxVB5XWngqj1LujacVgONC0aY00RbwjPaXX389tWydepcxowAc3r/rPoX4RyBs6CFi4UYCRgylPBw3h+1kKHhZPK8wtUGhoYswhh5BF2E0Uc6MLx9KORMCIS2kcm48RQrolPCKhmhDOUfaT7157ZZ2chVRVgDuvntrQneCZ4B1wUCCqvB6EOVlRSoX28liuxlsN4OUU59AIQwMLYyuRTC0CAJ9yW9iNpTy8JRvLlxlIWWh3Gk9QtCGFK9ITbQfO9Fx7pZ2cgUpO6qH9rf+CqjfMvQQyfhmxDx8Rdcr4LhZbDeL42aQN5gMXQTQtAiGFsYQ4WU1EWVREo8CrjeuIfKo6Y5lv4I24IimRJtZVff6yy+/PM22/CAwgwC0nAO2JyLrCQWqFnUBx8sVNUQWx8uBmvxlC3QtVNIQuggt6loLQ+HJQslsSJlHMW0SkUFxTGi0CSFesVTw+ydOnMitQGeXnGkCcN+BnU2e0q4JIahL7ETMoPoXglIKx8tiOxls1/cfJj99Ag193FyIMJp2a/2HcaS08bBwvfGZxrSH3wFeU9CmwxEvSPuxY13DK9DVRTNtdA8e2PlhobTnTCNKMrZpWS+ulEvBzeI4WQpeBulNddiE0DFEuCQUmjCXtT+z9dNVeaS0cGUepexyZqMHaAfaNF17oe14R8+t7+n8mSYAh/bv+m0QvxwJ1hILL2Davwg86WC7maIPkUPKGwXCxNAi6FoYQ0SKsYNbj0KWYhFS5XGVdYNpA4oBKilo15VoazvZcQqmBy1WmukaYH/LNwU8sRT2fzEopXBlHqfkP2RRN3zJmvD9B2Pcf1hCczWvvqKQMo+nLDyZx1V5mB4vGQLaEeoVoVR7XkROnDhxYtoc9VZTRgO0dAOba+JbMPSVcMpmxvXyvv/g+WZjqhoWvjNZjEEIEZjX7GWpkdIuCoQ//VRqmmOZE4pTSqNNU7Qb0jyyEgGqKd/QE1u3BkcTwSyg11ftWlIHcKlRSvoBqaJT6XpTo70CvTi78IVipRzKcZRycGW+FJOQyr7xFE/BmwLalFAvGDL48pFTpwaWu19TRvjw3l0tShedmmZSl9i23NdeUqR0sMfjD04GT90YkDKL5sJ3KG91QOpGpPLwZA5ZEginnGN5FmhTijbT04+8cvr0O0vdj6kCsG/XE0qIbwaMCNWx25b6WrcUV+axnWwpKDU5hyEQaCJQml3oWnhFzQX4Gs1Tfj7D8yykKpQTiKsIXlGKdoT2yrETHV0s0rG8QQBaf0oJ9Rchs4pEdP1i2l11TPYfbDc7zWvXRLCUvzC0MCtfK6OQysb1cr5QKKtcIi4tEK8qaJfKawtVWW3zzXxOucuDB1p+VSh+IxKsIxZuXOwdrFqUUr5mmMF/QGgYIlRyKDURXJmO3kDJsSxGLctkPh3gNIIXNEU7jtbW1tExMlubUwTg0L6WP0Xwc7FwI5Fg3RJ3f/UilefHH4pTTk9OddAmO5SGHkUspsZlCRkPUHmlzOcsjqWiXdd4ue1E16XJJ0w1AftbvqrghxORdYQC1cvd/1WL5xWK2mHcf5g6hdO0AIbw4w+aFvYrluaAQhUHK4unCijllcs7LJiZajVu4A0h+Ez7ia7PA2qqBtjfegzUPcnYJkwjumQde7fjeBaOmykKhMWNfpcuQsV0dxhdC1HOf3BlloI7WK4+YUVQiv997FTXT9wgAC3vAJtq4lsx9NVh91YbCuXHH9wMtpOZltDy/QffkdS0CLoIYLvDFDw/V2SaQWLxOsKhOKYRRNMWNx11HIsrV8+i6yZ1NVtm77uAfH6MsXQvKIUS6mPGDScoofzbrFAegSBgRAkYUQg1IpXn+w5Fh9KTNq7K4sps8XytVLdYW7Oe6uQalnKGoSs/wKWURNxEmAQQCSdRyiOd7kNI8a+nCICQ4ixC3WZ7uVUXBl6taEInGEgQJAFh8KRdij0UnAxKeQghaGzYQjSWXPLrC833P+Zo/wEIBatIp/tAsO9Gd/avgQ/m8gOEjDiatjLp13czuhZADwQImdUMuW/jKY/q6jWzDn6hkCWbG8WxLaT0QAiCgTChYIxItIrZNIYm/Kf+xkTZbIx/BohOEYBAVd1fFcYGfl5K9+5U9gLR0BqCZnzODVeYIFcYxpMOhhEkmVxX9px0Zojhoau47vQ6xVzWzwuZZpDq6jXE4/VlczNCiFK1tpKypBFmw/NK08XeKUbjwoULcuPaBoB/JpVHwRnFslO4nl83pwlzxXLw7yYUktHsFUBSX7+JYDAy5bjrFrh27S3GRvuR0sONJhjddhejrYdJ7byHzKYWnOoGjFwacmPkcqPYhRyRaHXZ7z812o9SkkikFm0OApCzhrGdHErx99MiGkqSQYCu+Yc86ZC3U+TtFAKBoYd8J8iMYeqRFcvBr2ZyhSGUcgkGo8RiNVOOWdYYfde78aSLG00w+L4nSW+9A3XDwGY272XowGPEuk/R0P4c2VyKa1fPsW799CytrmlIj2K8YvYglUKSs/wZidDEl6edrQmyEjCMENXVzXhugYKdwbazFJysPyf2LLKFQYQQmEaUgO4LRMVx9J2xXH4IgJqaqarfssbo7X0LpRS59dvpffjH8IJhzLEhqt78PrGLZ9CtNNIMkK/fQGr3/aS37qdQt4F1z/85jA0zMHCRhoZNU9oVJT/g5o5g3hor+hl0HT3R+Z3p4qKJNFIhlUQIgWGGMMwQ0WgdSklsO0s604frFlBK+QkWJwP5PjTNJGBGCRoxTCM22dl4z5ArDKCURzgUIxKZqKhybIvr18+jlGJ050H67/0IoKg98W1qXn8R4U3E9XULzLFh4t1vMHzHgwze9UGuPfoJmr/2DOn0ALFYNZHIRKRW03yNMBcByOYGARDwaUBNEwDhqX4E0+rxwF/1EwzGsfIpXLfAgx/5KJGqBD2dHbzT1UU+lyNfSJEvFB0YPUzAjBEwohhGZMVTrsuNVB65gq9ekzUT2VSlFNf7ziOlR2Zjiz/4nsvaF/4P0UtnANh7z0Ee/fCP0NTczOjIMK++9CLf/dpXqXn9JaQRZHj/IwwfeJTa73+L1EjvFAGYqwYo2Jlxh3NQBhJ/CWUMxqinX4wZnvI8Ryglyzod4zYoVl3Nvvc/wIEHHkIpxdXubro7T9PT2cHV7u4Jc8EAAg3TjBIwYgSMGIa+shU6y0EuP4hSknA4QTg8MXsaHe3FtvM4iVp6H/o4Clj73S8RvXSGcDTKz/zX/0brXe8rnV9VU0vzltvZvucOnvm1X6Hu5LfJbmplpOUw1a+/hJXPkM9nCYX8cL1edPxuXIQzrX9Z3zQh+NyxY8csYHpZTF9fn7OhqeFJYG3ADGMY00PChUIa182zdfce1m7e7LcpBImaGjbt2Mm++x/gfY89zrrbNhOKRclnslg5P0pmuxksexjLSRWzbgpdM1d1+dlckNJhLHcFgMbGLRiGL+Cea3P9ejeg6H3o4zjJRmpef5HqM0cJRyL80v/4Y25vaS3bZuO69WRSKd558xxCemQ278XMjhIauIxhGITDCQB/lmBbBINRTDNcti3Xs8lk+gBsXciPX+odzMAMLqNAPKdQd2ZzwwSDienHi1rBzs9cexAKh9lx513suPMuAIb7+ujp7KC7s4MLZ89QsCwsbxirqDJNI0zAiBMwYphG+ZtYzeQKgygUkUhV6ckEGB3ztUK2eSe5DTswx4apPfkCAD/9nz/Jhts2z9ruwx/+CC/9w98T736D/vs+Sm7d7VR3tWNZ6dI52hxMQC47NB4s+psjJ872jv+9rAA4hvtnhqt/0razsXwhTSg4NRg0nsDIjM69iLWmsZGaxkbufPgRpJRcOf8W3Z2d9HR2cq2nG8e1cFyLLP0IoRVNRZSgEUfTV3dE0pMOOduvu5jq+SvG0n5dZ6r1PgBqX3se4Tnced/72Xvw0E3bbly3noa16+i7egVzpA+rcRMAhcLEyjShFwVAlo8GKumRy/tjJYX89ORjZQXg+98/N3TwQOuvC6V+f3TsGkbNbVNs9vh0r/fixZveQDk0TaN52w6at+3gwY98FCub4Z0zXXR3dNDT2cHo0BAFZ4yCM0aaXgw9UPIdTDM65/z7rSJb6AeliEaTBIMTT79lpfFcGydRS3bd7ehWlvg7p9E0jY/85E/Nuf01zc30Xb1CYGyQTLIRpekgPaTy0Ip7McDMGiBnjRTXKYhXvnfi7MnJx2aMGhw70fmHh/a3PKqk+4Hh4QskkxtKqtk0/cjW1fPnyVsWofDiVHY4GmPXXXez6667ARjs7fXNRcdpLpw7i1Mo4HrD5ArDfjDKiEwKRq2sufCkTb6QQghBTc3aKcdy1hgA2eZdIATx7lMIz2Xn/jtpWFs+PFyOcMi/R80ugBDIYATdSuO5Lpqpl7KA5QRAocjmfDOrhPdHNx6fLWwkAwV+xA7yLSmde4eH3yESriUarUPXDQKBCLad4+TLL3HoiQ/O+WbmQl1TE3VNTbzv0Q/guS5Xzr/N+Y4OejpPc/3SJRzXr/bN5vvRhI5ZNBUBM3rLE1jZfD8AsWgNgcDUkG+haKdza/08feTaeQAO3Hf/lPM81+XsqZO4rkPrne/DMKfeg+v6MQJVnO8j/YEe98X0kg8wvbqokB8bn9L3rN/c+g1OnJ1yfNa44ctdXZkntm59JFUV+DSKn8nmBkUuN0QgEC3NPdv/4RvsPXwv0cR0Z3Ep0A2DjTt2snHHTh5++mPk0ml6Ojvp7uygp6uD9MhIyVxggaEHJ2mH6LLmLjyvQN4eBSCZXDvtuG37TnK+vhmAcK9f1r9j7x2lc/JWjj/85H+h55wfD1i/6TZ++Y//J4HgxOxrqN8XMi9ahZAeuu3bf133h0/MMg2cePrFn5TbPOum1Y3fOn++APzcwTtbvojk10B9oGBnStNHK5Pm7/70Mxx84oNs3LFzSseXg0g8TuvBg7QePAhA/9XL9HR00tPVwcVz53DsAq5X8AMyQmDqkYlglBZa0ulmpuAPTCJRhxmYGgZXSuFJF4TAC0fRnAJ6IYthmtStaSqd953n/o6ec2fwYlUoXefKhXdo+/bzPPShpwBwHZerF/yFxnZVPUZmFJRC14zSvWgzmADHsXCcHMCoNPJfLHcPcy5vPfZa1/eBDx7et32t0synQD2G4mEgduHsGS6cPYNummzctp0te/awZfduGtZtmGvzC6Zh3QYa1m3gnsefwHUcLr31pq8dOjvov3x5wlzgf1EBPVYSiMWYC9ezKNhjCCGorp7+9I8vdfcCYZSmY2R9TZFIJqdk7LrP+E9+6v1PEey/Quz4i6QGJlaEdZ89g10oYFfX40YSJN72fbjApAyjmMEJHA/7KvjCq6+eHyt3H/Ouby5uqPRZ4LNPP/203tt97g6J+hCoJz3H2d/T1Sl6ujr5zl9BLFFF8/Yd3H7HPrbv20couryFpoZpsrmllc0trfDP/wW5dJoL587wTmcXb59+nbHhYfJylLzjD4aumaWZRdCMz2t2kc37g5SI12OaZbRecZBFcc8kNcNcvSrpF4rET7yEMeRrlNt27igdP/rCPwKQ2+D/Ldzb7f8bnjC5WpmqIM9zyOfHADxd1z4z030sqsC9aFNOFH9+rbi7yGPA48AjmbHR2jPHX+XM8VfRNI31W7ayZfcetuzeQ9OmTXMqXlgMkXi8NLtQStF/+XIpGHXprTdxHQfLHsGyR/xQtREmYMZ9czFLZtNxsxSctP/0l7H9MBGc0Rwb4bnIoN9eZnQMKWVp0B5/+kc52X4Erl8G4MC997P3bj8+MDo8xPF/egmEILXzIMJziF3o9O9tUqjZc6fnbXI5P+yr4OuzbVaxpCscihGmZ4Fnn376ab23p+tOqXgctMellHddevst/dLbb/HSV/+WSDzOlpbdbNmzl827W4kllncvAiEEjc3NNDY3c/CDP4Rj21w8d46erk56Ojrov3q5tLgUQBcGZtFUBMwYmvC/KsezSiHf6qo1GEZ5MyKEQNdNPM8hMDZEIdmIk6iFsSF6L19k3UZ/7WVTczO/9RfP8vr3jlG3Zg279h0o2favPvsF7EKB7Iad2NUNJN46gZ7PEghECIZipWuNpPztk0NB/zv0U9Ijxftg2tRvSj8X9nXOn4MHW2q0gnhUwWOgHgdKnpAQgjXNm9i8ezdb9+xhw+3b5lTZspSkR0bo6eoo+g+d5NLpKcd1zQREadVQMBRj3drts84y+q53k8kO03/4h0m1HGbNP/0NiTeP86GP/zhP/ctPzNqfE0de4XO/8xsoIbjw0f+EU1XHxr/7IwLDvdTXbySRaADAyme4dvUsQmg01G1DaDqZbD+ZzADAa0dPdt0123VWKgMj7t3XskcKHlPwCQG7Jh8MhsPctquFLXv2sLV1D1V1t3aZmpKS65cu0dN5mu7OTi6eO1squhSaRlW8npraDTedUYyNDjAweIFs806uPv5ThPsusuHrzxCJxfjNP/8iVcmasp879/opnvn1X6VgWQze/UMM732Q6s4jNBz9OoYRYMOG3aUHpPf62+SyKQw9QDCUwHUKFOx0sa/iA+2vdX5ntj6uWMXGpesDfZd7B9qbm+rrQTwwnghSysFxbAZ7r/H266d49dvP0/XqMUb6i05XTQ2avrzdFkIQr66medt29t57H8df+A6ObdPUtI36+o3F2rybPzuGGSA12k9gbJD0ljso1K0jNHAZMXCNtzpPs//wvQSCE76G9Dxe+NpX+eIf/j5OocDY1v0M3PMhzLFB1n73LxHSnVJjaNsWQ4P+Uj9/fUJuvOCzoODfHT3R9dc37ePCvqKlxzCCxEKN5ApBMlYv+I7ldeDBwd7eyGBvL9/7x29hmCabdu5kc+setu7ZS11T0+wNLwHxZJJcOo2m6fMKLOm6SSJey9jYAHWvPc+1R36c6+//GBu/9gwX3nyTT/7kj3HwoUepb1rLyNAgJ468wlB/H0Cpaki3c6x//gtoTp5ItHpKjWEq5Sf1BOIFpZSfYhSqXxfq+ckZv9lYNQJwIwLxWvvJzp994IEHDDc9cI+EJ1E84jrO/vOnT4vzp0/z7S9/iVhVFZtbW9m2bz+bW3YTikRu3vg8iVdX03fpEq47bfXtTamubiKdHiLWc5qqs8cY3XmQS0/9Amte/DJcO8+L3/j6lPOdWJLBu58kvWUvRnaUtd/+IuboAIFAmMaGidSx69pkMsMA0oNf/N6prqkx3jmyagVAoYIAxS1a24o/HNq/6ydBfEETOgpFZnSU0+3tnG5vR9d11t9+O1uLU83G5o1LEvmLV/tzdc+b/8JO0wxSX7+R/v53aGh/DhCM7ryHK0/+LKG+C8QunUXPZ3GDUfJNm8it344SGuHrPTS98JcYuVEMI0BT07Yp6whTqd5xv+S5753sXNDgw2oQACXSCD9nDRPl6MC+sucLsR0FwUAV8XATVmGItHXdz5JJycVz57h47hzf/cr/JZaoYsue3Wxp3cuW1lbC8YUtcolV+/V340mZ+RKP12HbFqnUdRqP/C2Ra28zvP8R8o2byBfz+wAoRWjoKslT3yV+odP/fyhG45qtGJNqIqTnMJYeLP6HTy2oU0VWXACEUFfUpOlVwPATTUp5ew/t2/Vvj54688z4uffua9nrKX5BQGnFkiwuZI2EqojF1pDJ9pMrJkAyY6O80dbGG21tCE1j7abb2NLqxx7Wb906Z+0woQHmbwLGqa3dgGmGGBy8SLz7DeI9pylUN2DXrkUaAbRCjvDAJT/Wj++IVlWtoaZ23TS/IzU6gPIzgt89+nrX8QV3ilUgAJoKvuQJ27PdrC6lg6aZxEINpK1eEOJPDu1r+RBCHFVKbZKCHxUQDJoJAoYfCCkUs3GmGUXT9JImaWjcSDgc4+KFLsCf2l3t6eZqTzev/P3XCEWjbN7V6puLPXuIJ2deuzeuAbwF+ACTSSTqiUQSjIxcJ50eJDjSR3Ckb+r3IXRiiRqqE2umJZj8+/AYG/U/IzSxqKcfVoEAHDl1auDQ/tZvgPpwJt9PIrKOcLDGt+/5PkA9CurR8Yc1FKgiHvbDr/nisjVN6ARDCRwnR74wBgiqqhtK19A0k5r41uImDxkKboZ8Nst4mBqgYf0Gtu72tUPz7dvQJ+Xk4+MmwFv8jvGG4fsEdbXryRey2E4eJSW6rmOaEYLByKyaaTQ96GcZESdvNsefU38W28BSoCv1K57g8bydChlakEiojkiwlqBZhe2M4krHH2QzXorRO26WdM5/0Uc81ojrWKRSl1FKUVO3lkAgVMrHA2hCI2gmCJoJ4vjvNbCdDJm8H0btv3KZ/iuXOfqtb2IGg9y2c1cpbxErmgDXK/uyiQUhNL1YPl6+jkJKDyk9POkhPRdV/H20GPYVyEU//X47q4SD+1p+XAieBUQwkCAWWlMMv05FKUmuMEwu349CoesBDD1Yin5FY9Vs3NSKEALbzvP2m8eZaeNLpRQDo346ViieUoKH8BNZ2yefl6xvYGTAz9Q1NW2bsuJnJsYHTEp30kB6KOmWfveUf0x6/nme56GKtX43We799rotu3YuxdvRxD0Hdu7XlHbnYhua1jBisP1k53PMY7uRw/t3fVwh/gIICfx1h6YRRhMmSnn+Xn9uBlmm9An8KVddw4aSVLuuS3/fBYTQyu98rpTvawCjBYJdXV02wP179tzm6fIxJXgM1MNAafqgCY1YvAZNMyYGT3l4njvliV2CXVYcIFX6UaSEECkp5JAmtc+3n+p8bbEXABCH9reMMekGlxKhxE+3n+r8/Hw+c+hA6xaU+hTwFLfQRE0WgMkcOHDADIvCYeWpx5TG4yjuKPf5MkgUKQQpYITiQCpBSkiRApUSgpRCpBSkdKFSUsiUZ5upsOelXu7qyizl/c2EOLS/RQHEq2rRigURudwYjlMgEAgTmGGlyWy4nkM+nwZE59GTnXtYwONw34GdTa7UHhWCjwE/pGkmAX32KJ/Ew3YyCDT/9XU3QQlwPf97nkkAbuTQHS13KV28X0NFFCKlpEppkFLIlCf0lClUyjEKqZkqcFYbJQHY1Xq4NN8cHrpG77VuIuEETWu3z9pAOZSSXLz4Bp7vNT989GTXiwvt4OEDLZ9QimeDgQRVkdlLzFwvz3C6G00LEDWbb95PFJmCX2EzVwH4QaNsZiNe5adfc9bYtNe4zAUhNOLx4jRM8IsL7x5IaPabee8tNb8VlLWxphEgGq0mm02Rzo5QlWgod9qsVFXVk0pdA8WT9961e/M83qGj3XNg5x2a1B5A8BCKxwGCZuwmH6uwEGZ0shLVdWSzKbKZhQmAYQSIxpJkMyO6lPLngf84w6ni0J07W1D6QygeRKn7UdRMnqD6MYHlWXfwXmdGAahK1HH9ajeWNYbrOVOSEXOlumoN2cwIKP7VAy0t/33csz14YPcOgXpQKB5UqAeQ1Jf8RAGaMIq1eP5+ApXt6paPGQVAN0yisWoymRFymWESVfPfPj4UihEMRikUstV2kGcO72sJKMGDKNkEE1MDTeil8mzTiGKs8Otd3kvMOs9OVNWTyYyQzozMSwBc18ayxrCs9OQ98H5ifGtqIXQCRtTfMUSPLv2+xErhypu/2PPdvinFUnATAail95qgUMjgus6MJdCe55CzxrByafJ5P4YwGYFGwIhMesKXdokWQMEZJVfwa+GlcrCc+b0QPBQKvSc3SJ5VAHTdIBZLkk4Pk8kOU13UAp7nYuWLA26NYTvT37gR0P0BDxoRjJsEcBaKVB75wgiWPVTMkBVfX2/MbEI8175xdY4UiD9fDe/wWwluGmpNVNWTTg+THhvAdfJYVhrbtm44a3xVzbhKDy+renU8C6swTN4eY3zvfl0PEI3UEAonSxsmTMa2s2SyA7gTg2+D+pLmyU+1vXHurWXr7CpnDgJQy7WrGrZtTRl4Qw/5iyz1aHHXjuW1p/57fjLk7GF/X8IiATNCJFpTWhVz42dsO0MmOzi+ShYFWaHU5w1D+4NXjnddXtZOvwu4qQBomo5pBrFti3AwSdBMYOq37r29M6n5cKiKSKS27C5mCkU+P0o2OzjZCR0Ris8ENOdPXj751uAt6fy7gHll28LBGgzt1mwH63oWVmGEvJMq5cZ13SQSriEcSZbfhVQprPwo2ewA7kT9Xj+Izwak8emVeDXramdVVASNsxA1739OkrNSZLMDSFkq27qghPg0gfj/Gt8UscJ0VoUAKCWx7BS5wmBpi1qBRigcJxqpwzDKax0pPXK5YbLWUKkYFOhQij8IVtV/ubimoMIsrKgALEjN48cdstlBrPzIpNIpcVIJ+XvHTpz5WyovPZozt1wAFqrmwd/uNJcdxLJSpTd1CUW7EHyq7WTnN5a98z+A3DIBUZBgxAAAAqNJREFUWKiaB3Bci1xuCMsaHf+TBL6pNH7zqL93UYUFsuwCsFA1D+A4OTLZQQqF0mYNDvDXSmi/c+xEx7nl7vt7gWURgMWoefB3I585eNP5ng/eLCVLKgCLUfMKRd4aJZubErwZQ6lnXUP87vHjZ64vZV8r+CyJACxGzVeCNyvLggVgsWp+IngzoS2U4B0Qf1wJ3tw65i0Ai1HzcJPgTaISvLnVzEsAslYfBSfHRArWJBKuJRJO3nTTR8+zyWaHpgRvhKJdCvF7x052/j8qwZsVYU4CML4LdcGZulpJSY9MboBMbqDcx6adO46A55WSv9t+6uwr8+lshaXnpgIwNHgV1ym/LFoqOa/nViC+IjX5u0dfO3Nq7p+qsJzMKgCWlabvur/HfUPDZqKT3lU3F6RyuXLlLJ7nIBB/1n6y82cX3tUKy8GMAiA9l8uX/B0yE1X1xOO182584HrP+M5aHTIY//eL6GeFZWJGz+3qlbdwbH+FcF3txnk3PJq6TsZ/BXpGCe1jlWnd6qSsAAwNXmVsbAihaTSumftuWuMU8lmGhq8U/yd+rhK3X71MMwFWbsLu19dtImDOrwRMSo/r/f5LkpVQnzt2outLS9PVCsvBFA0gPZfLlxdp9/t7cB0boINA1X9Yon5WWCZKAqBYvN1PVez+u46SAAwvgd0frtj9dx0lAei/7r8GtqH+tvnbfc+jr78bpRQC8WdHT3ZW7P67hEkmwLf7k/ejnysDAz3jC0Ir8/13GVNmAXkry5UrXfNqQCmw/TdZpj0pf+TVit1/V2Gg6EPQCKWBXAgKxb959fWzby9d1yrcCgzP0+8UurPj5qfOjNCMvmMnOzqWqlMVKlSoUKFChQoVKlSoUKFChQoVKlSoUKFChQoVKlSoUGGx/H+qXgRar88l7gAAAABJRU5ErkJggg==;flipH=1;" vertex="1" parent="1">
          <mxGeometry x="114" y="291" width="48" height="48" as="geometry" />
        </mxCell>
        <mxCell id="IXQjAg93TRmVaCYCpcYk-23" value="유해 조수 탐지 및 결과 전송 장치&lt;br&gt;&lt;br&gt;&lt;br&gt;&lt;br&gt;&lt;br&gt;&lt;br&gt;&lt;br&gt;&lt;br&gt;&lt;br&gt;&lt;br&gt;" style="rounded=1;whiteSpace=wrap;html=1;arcSize=6;" vertex="1" parent="1">
          <mxGeometry x="208" y="234.54" width="212" height="155.46" as="geometry" />
        </mxCell>
        <mxCell id="IXQjAg93TRmVaCYCpcYk-24" value="" style="shape=image;verticalLabelPosition=bottom;labelBackgroundColor=default;verticalAlign=top;imageAspect=0;image=data:image/png,iVBORw0KGgoAAAANSUhEUgAAAIAAAACACAYAAADDPmHLAAAABHNCSVQICAgIfAhkiAAAAAlwSFlzAAADVAAAA1QBkANg0QAAABl0RVh0U29mdHdhcmUAd3d3Lmlua3NjYXBlLm9yZ5vuPBoAAAtBSURBVHic7Z1tbBzFGcf/z9zZcWwDcWxjnwmEgFxCEp9NAQERbQEJBSqVqgjRllaItir9UKkqxbF5actRWojtUNQioYSW0kKp1BIEIrw00JYESIgiJ+BLnBJC3CS2785vcYhfcr67nacfHINxdu3LZXf27nZ+kr/sMzvPczv/nbedGRNm4Zx7P/iCNMTvAFwNoHS2tJqsI0GE96VEc6wtuMUqEVkZyprbzyriwj0AFjkSnkYVE0zy0lhLQ6eZUVjdNU8WfB268POBeQTxAyujpQAEiQXOxKNRjqRyK5O1ACQ2AzCciEejGIE3rU0W9KytCwPcSEDSmag0auCnoi0rnrOyWnYCp6i+5/3zhSGuYqIzMg2BGEEm/NjMtqD8jC1+4bMUYr4zMHg0SIyzZl4n8CsM2phpvsxIsMDOvpbg7tnSzSkAO6hp7vgaM71sZqu9eHGfv9BfpSKObOS/4a4+MJ/0+wn8YKS1PuS0f8++eZpJlAhAQkhrm7c7msTwmV2XICXPRU0NQNRvZRofm+hVEkMWkkwa/QyuMLMRwfKZ2YkSAXDKOASAzWz9vf3FzJxQEUe20XMwus/aKg+qiEFJJxAAAk3hdgCXmgYhaF9l1cLBopKiMiJ1MblF4njyk8HYkC+ZMi63SDLmS45W9jy28rjTsfiddvApzM+CyFQALPmi/ujQRcpiyXII2KCi8AGFo4CSePE6gA+p8pfDxNnwP6DKmTIBfPx47QSRuA3AhCqfOQnhp9FHlyl7UZTOA0Ra6rYx0e0A4ir95gjMoFC0JbhepVNXOlxVjR1XCEFPA7jYDf9ZSIwZP4m1BZ9X7di9HnfoLX/1WPl3SeDbYFwDoNC1WNyBibBDgjYY88W6gdDyUTeCyI4h153tBecsKKiSgub+JmBwJYheNzNdcmHZlmWLzzjb9vimcWw0ObZxR/QycyvfBUHvzJWHYdDR4pLS3oOhJa43heqGgbPx5GXJXqAHk3+zcm7TrpqURdiBssL5ixbOd7RZGSny91nZiHAgsia400n/dqM/BnkcLQCPowXgcbQAPI4WgMfRAvA4WgAeRwvA42gBeBwtAI+jBeBxtAA8jhaAx9EC8Dg5JwDDkJZ7CBIp53cZJVJsvaZRipxb75hzAogc7hoGYLrVbHgk4fgGk+HxxLC1VQ467d9uck4AeP5WA4Dpg+4+Mm66z85ODveNf2JlEym2XCySreSeACZpN7s4MJxYKpkdbQY6u0dMT0sjINrzWEPO7XPMTQEwbzW9DK7Y/uHQdqfcRobiH43HUw2mvom2OeXXSXJSAER4ARabTbfuHVwST6aO2e2TGXLD1u5xWDwzklC+pNsOclIAkdb6fQCbvnGSqeapTYf32d0UvLCt9+3jCWn69gMYKo4XvWSnP1XkpAAAgIl+Y2UbjScvX/da1/t21ASS2fjHu91bDkRHr7FORY9+/Hhtzg0BgWzZF5AhgabwGwCut7L7BB2+rr4ycskFZVdksu38YN/Ynhe3R5FIGitmSdbtS45epGo3r93ktACqGjuWCEE7AZTNls4n6PB5lUX/W3J2SUH5mfNKC+f5CszSpZLSODKaGO0ejMe7oqNViZRcitmfkSHAq3pb6/99Gj/DVXJaAMCnJ5C9CJifteMozPdH2+ofVu7XRnK2DzBFpKV+IzF9B0BKpV9iXpvrhQ/kgQAAINJW93dIupUAy1k6G0kRcE+krX61Al+Ok/NNwHSq7glfICSeBbDSIRddxOL2SNsK04moXCSvBDAJU6BpzzcI3MrAhTZlOkxMD5SViPWdoeV5daJZHgpgkpqmjhCDbDlrh5k2xtrqbrIjr2wjO7aHq+XI4tpzTL/a9XRFk4Yhg6oDchPPCYAIyeLiItMzBEiIHTAsT7XNS/JiFKDJHC0Aj6MF4HG0ADyOFoDH0QLwOFoAHidvBSAhTNcMYpbZTyLO25lRK/JWAMRsuhyMGRVSStNjWVNJafHvW+RRO2PLJvJWACCyOnJdxHoGTzrN89jRsV3MfP4p5pXz5O1UsJTyXSFIwkTkx4ZHVjKwubKqrNbno6IjQ6N7B2NDdbBoHojpbafjdYu8bvMCTeHXANx4mtl0R4uHLkDoWqUrjlSRv00AACHxECw2kKQLEz+Sr4UP5LkAetcG3wPR7zPOgLE51rXvSRtDyjryWgAAEJ0/2Aggk107HcJfcMuJ3ch5i/ql1KrZ/Bc5WnPthtIFFUVEuBLpiX5DnBI396+pn+UsgPwgrzuBM1nUuDuYEvI+An3TPAVvJYgHI611b6qNzD08JQAAqLhvb6AglYqY2Yj4pkhL/UbVMblJ3vcBNLOjBeBxPCcAP8ctx/QSlLfjfSs8J4DYI18cANBvYmKRpD2q43EbzwngBL846Qrjychv67pdiMVVPDcKmGJyWznuAKiYiV+OzQ+uR4i8tSlAo9FoNBqNRqPReBDvDgObOm5iojvAVMyQL8eKg+u8OAzM20WhsxFoCt/JwPrJxWIMAq0KjO+ujwI/cjs21Xh1JvAhk2s/rGnuPE95JC7jOQFU37urEsDZJiaSMJarjsdtPCeAFBVZNnsC7Lkm0XMC0HweLQCPowXgcbQAPI4WgMfRAvA4WgAeRwvA42gBeBwtAI+jBeBxtAA8jhaAx9EC8DhZ8flz0V2dC1OF8vuCZTVLsTVaOrgxHw9mql4d/goBNzBhnAWe61sT7HI7JtfXBAbu3rsYvtQOTFukQcAByfh1rGTor3YLwY0DIgLNH6xiFg8QcNW0yxMMcWOsdcVbdvs7FdxvAkTqYcxYocPAhUR4uma8/MPq1eE7EHorK2qqUyXQ/MGq6qbwNrD454zCB4B5xPIJVwKbhvsCILrcypSrQpij4D+DsLQy1FmqMLSTcF8A4ANzpsgRIaRd8J/RPxBabnpwtSpcFwARPQQgnk7abBVCBgUPTK5H/7mjgaWB6wKItNRtg8DVDLyX7j3ZIoQMCx4EHCDg5mhL8A9OxpcOrgsAAKJrgjtjrcGVIHlDJkIIHC/vqL67c5mTMU6n5u72ikBT+I1MCp4Z34sUDy2NtAYzOb3UdrJCAFNEWxo2ZSIEMJaRT76kqiZgX8F6ANenm356wcfagn/OpjmOrBLAFJkJgWurRhde6mxkQE2ovRigtP6RdDYX/BRZ0YmyItrSsAnAJouJFFcoRLmcwMisE2hTE1lRByay7CYra4CZpFcj0P6+Q/vanY7lYGhJHMCLphHkwBs/k6yuAWYyvUYAi18CWAkADIQJ+Jaqo90LBO5MSpQCuGHyCu1n5odz4Y2fievfAk6Hmp/tPtcQ0t+3NngQoLT+M4id3wIqV3dWF/qTZ/Y+Ur8/Xf/ZRk7VADNx+2DHgbblMQAxN2M4XXKiD6BxDi0Aj6MF4HG0ADyO0k5g9b27Kinl+zKIyu3LlQbZl3znxDHwyqhq7CgRhC+ByLZzhYgwahC2q1wqpkwA1avDXxUG/saEs+zNmUGG/2h1c/i2WEvwdXvzNifQtPtigF8FsMTOfJkBwUgFVoebom3Bx+zM2wolTUBlqLOUCM8w7C78T1lATM9UNXaUOJT/DPiPsLnwp+EHoa2qOVznUP6fQ4kACo4nGwDYWO2bwRU+8jXMlYqSbDlhY0gx52TOCZFdeYrBnSo+H9O1DvsAoEgAzL4hFX5AxuBcSQZKlvUDGDGz+Ujun+v+vtLgcQBjpx7cKUI852+xAyUCiLau+JAY/3HUCeFfkdbgR3OmC5Ek0LrTup95fUYxps/h+Pj8Vxz2AUDZMJDY78MtTPgTALt76wMAP1VAuDXd+fjI0Yn7CfwgwIcyuv+T5H1E+NWJ++1khIBXDabrjjxee8zmvE35PwlCESONuDlnAAAAAElFTkSuQmCC;rotation=75;" vertex="1" parent="1">
          <mxGeometry x="97.13999999999999" y="252.03999999999996" width="29" height="92" as="geometry" />
        </mxCell>
        <mxCell id="IXQjAg93TRmVaCYCpcYk-59" style="edgeStyle=orthogonalEdgeStyle;rounded=0;orthogonalLoop=1;jettySize=auto;html=1;exitX=0;exitY=0.5;exitDx=0;exitDy=0;entryX=1;entryY=0.75;entryDx=0;entryDy=0;" edge="1" parent="1" source="IXQjAg93TRmVaCYCpcYk-20" target="IXQjAg93TRmVaCYCpcYk-18">
          <mxGeometry relative="1" as="geometry">
            <Array as="points">
              <mxPoint x="184" y="343" />
              <mxPoint x="184" y="327" />
            </Array>
          </mxGeometry>
        </mxCell>
        <mxCell id="IXQjAg93TRmVaCYCpcYk-20" value="추적 제어&lt;br&gt;( Pan Tilt )" style="rounded=0;whiteSpace=wrap;html=1;" vertex="1" parent="1">
          <mxGeometry x="220" y="320.52" width="64" height="53.48" as="geometry" />
        </mxCell>
        <mxCell id="IXQjAg93TRmVaCYCpcYk-52" style="edgeStyle=orthogonalEdgeStyle;rounded=0;orthogonalLoop=1;jettySize=auto;html=1;strokeWidth=3;exitX=0.5;exitY=1;exitDx=0;exitDy=0;" edge="1" parent="1" source="IXQjAg93TRmVaCYCpcYk-21" target="IXQjAg93TRmVaCYCpcYk-1">
          <mxGeometry relative="1" as="geometry">
            <mxPoint x="340" y="440" as="sourcePoint" />
            <Array as="points">
              <mxPoint x="355" y="550" />
              <mxPoint x="225" y="550" />
            </Array>
          </mxGeometry>
        </mxCell>
        <mxCell id="IXQjAg93TRmVaCYCpcYk-54" value="탐지 결과&amp;nbsp;" style="edgeLabel;html=1;align=center;verticalAlign=middle;resizable=0;points=[];" vertex="1" connectable="0" parent="IXQjAg93TRmVaCYCpcYk-52">
          <mxGeometry x="0.0941" relative="1" as="geometry">
            <mxPoint x="48" y="-97" as="offset" />
          </mxGeometry>
        </mxCell>
        <mxCell id="IXQjAg93TRmVaCYCpcYk-58" style="edgeStyle=orthogonalEdgeStyle;rounded=0;orthogonalLoop=1;jettySize=auto;html=1;exitX=0;exitY=0.5;exitDx=0;exitDy=0;entryX=1;entryY=0.5;entryDx=0;entryDy=0;" edge="1" parent="1" source="IXQjAg93TRmVaCYCpcYk-21" target="IXQjAg93TRmVaCYCpcYk-20">
          <mxGeometry relative="1" as="geometry" />
        </mxCell>
        <mxCell id="IXQjAg93TRmVaCYCpcYk-21" value="AI 탐지&lt;br&gt;(로그 저장 및&lt;br&gt;탐지 결과 전송)" style="rounded=0;whiteSpace=wrap;html=1;" vertex="1" parent="1">
          <mxGeometry x="304" y="320.52" width="90" height="53.48" as="geometry" />
        </mxCell>
        <mxCell id="IXQjAg93TRmVaCYCpcYk-57" style="edgeStyle=orthogonalEdgeStyle;rounded=0;orthogonalLoop=1;jettySize=auto;html=1;exitX=0.75;exitY=1;exitDx=0;exitDy=0;entryX=0.5;entryY=0;entryDx=0;entryDy=0;" edge="1" parent="1" source="IXQjAg93TRmVaCYCpcYk-26" target="IXQjAg93TRmVaCYCpcYk-21">
          <mxGeometry relative="1" as="geometry" />
        </mxCell>
        <mxCell id="IXQjAg93TRmVaCYCpcYk-26" value="IP 카메라 스트리밍 서버" style="rounded=0;whiteSpace=wrap;html=1;" vertex="1" parent="1">
          <mxGeometry x="220" y="266.52" width="164" height="33.48" as="geometry" />
        </mxCell>
        <mxCell id="IXQjAg93TRmVaCYCpcYk-43" value="" style="shape=image;verticalLabelPosition=bottom;labelBackgroundColor=default;verticalAlign=top;aspect=fixed;imageAspect=0;image=data:image/png,iVBORw0KGgoAAAANSUhEUgAAAIAAAACACAYAAADDPmHLAAAABHNCSVQICAgIfAhkiAAAAAlwSFlzAAAD9AAAA/QBJxjN1gAAABl0RVh0U29mdHdhcmUAd3d3Lmlua3NjYXBlLm9yZ5vuPBoAABAJSURBVHic7Z19cBzlfcc/uzrpJOv0ZtmS5beV3w022OtXaEjHBEJDCzOUtkOHNoWWST0dmhLaadMC2eBtSCbptIGGpEmaNs7QZKadzKSZFtJxIBDwpEnAXkywizEYLza28ZtkvVhvp9v+sSdF2n3udC+7z+5J95nR2Ld79zy/29/3ntff8zyK4zhUmbskwkhUM62bgAeAtWGkHwMc4CJwJvv3M+Bp29B7I7WqBJSgSwDNtNqBU0B9oAnHnzHgBeBx29CfidiWglFDSPNO5p7zAWqBDwNPa6b1vGZa26M2qBDCEEBjCGlWGruA/9VM60+jNmQmQmkDeFnYlCRRo8jISgqOA/3DaQZH0vneVgN8STOtjcD9tqGPy7GuOKQIYOfKNpobamVkJZWRsQwXB0e5NDiKfeEKl4fGRG/bDYwCfybXusIIowqYMyRrVRa31rNxSTO3XtPJ1YubUcQF3cc10/pjyeYVRFUAAaGqCpuXt3DLhs5cpd2Tmmmtk23XTFQFEDDtqTp+bWMnqaSvdq0FPhuBSXmpCiAEamsUrls1X3TrTs20rpNtTz6qAgiJjuYk67uaRLd2y7YlH1UBhMimZS2iquB2zbRqorBHRFUAIVKjKnS1+gZF24EbIjBHSFUAIdOeqhNd1mXbkYuqAEJmfqNQAEtk25GLqgBCpqWhlhrVNzo0qwUw4L0wmp67QSeKAo1JX5uvLQpbRIQhgHe8Fy5dGQ0hm4omNjNjYUwGHfdeuDQwCp0h5FS5rNdM6/Hs/08DB4ADUUQUhSGAk8A47nQoAD2D1RLAg4YbMjeVEc20DODvZU4dB14F2IaeBvZPvdY7NMZoOhN0VrONJPB54EXNtBpkZRpWL2Dv1BeOAy+f6Akpq1nHrwCPycosLAF8FxicesG+cIV3L10JKbtZxwOaaW2TkVEoArANfQD4jvf6y8d7GB6LZWSUVLpa67n7umXcfd0yPnJNJ8vm+0p8FfiIDFvCHAj6JG54+CQj6Qw/PnqB/uG8sXRzivmNdexcOV80WFS5JQCAbeg9wD24iygmuTgwyjOvneXo2f6wsq446hIqC5uS3strZOQd6lCwbeg/Av7Oe30843DgRC/PHjnH2cvD1R4CiGIJpUwZy4gK/msgk/13Guf6RvhR33kAmuoTzG+so62xFjVHZGWlEueh8NAFYBu6A/yNZlrvAU+Qo9TpH07TP5zGvhi2RVWmIm020Db0J4Evy8qvSmHIng6uVvYxoxoPMMeRsjQsH7dtWgTAz473cL5/ZOqtd4Bfj8KmEHgGWBG1ESIiF8DEKhrB4tFR29DfkG5QCGimFdvp0GoVEBMyGV9XUYpoqgKICQMjvjmSt2XkWxVADBhNZ0R7DRyTkXdVADHg/84I50UOy8i7KoCIuTw0JpoY68GNqQgd2QK45Lswh+MF+4fTPHfkPOlxXwPwa7ahD4o+EzSyBeBr2Bx+r2/OzQamxx0OnbzMM6+dFQXI9AL/KMsW2eMAPwCGgMkQmJOXhjjde1oUEDFrOd8/4h30miAN/LZt6Gdk2SK1BLAN/RLwde/18Ywz50qBHNxvG/pzMjOMYiTwr4DtuNGvZbPq8wda0iM1O4DFGSdjnfr0ll84niikoFBAWbrn4DWqourA6URy/Odvf3Lr5QCSPgnstg39BwGkVRTSewG2oY8CtwDfKDetbtO6Lz2ivgvOPnD2qopyaLlpvbTsM68GHk617DOvrlluWi+pinIInL3g7EuPqO92m9Z9ZSb9P8DGKJwPEXUDsy3ctynjl7rcPHiX44qo2XPrA2rG2dex50iqHBun0rHnSErNOPuAD3huNTvwjeXmwbvKSP5mwNBMKzB7i0G6ADTTSmqm9S3gc5S4SFLZg6qgPJnnLd3zlJEHSzJQQDat7pz2oDyp7Cn5WSaAvwAOaqa1uMQ0SkaqADTTWgg8B/xBOemsqHltDbAg75uUYNoYBaa1IGtTOawBntdMa1GZ6RSF7BLgK/iLUYCzeNYQ5CPtZLzFvg/H8VUNJVNIWoXYNIVTuN/Zy1rg20WkUzbSBKCZ1hbgtwS3Pguspoixbyc19DruCuScKI7zalEGlpfWeNamQjmM+51FG0d+SDOtu4tIqyxklgCP4a/zH7YN/eFihz1PPnj9kOM4X8zzlmG1JhHYaFo2reFc9x3H+eLJB68fKiZN29AHbUN/GHhYcPtzmmlJGRmTIgDNtG7Av9btOdvQS946NTm/+REU4YRJH4pzz/FHrj1aatpejj9y7VEU5x6gz3dT4bvJ+c2PlJp29hl4B3+W446VhI6sgSDRvniPlpPgsY+vHgF+p9u0bsXhZmCxozrWeCbxnVPGtQW3JwrF/tSW/1i657Wf1Kjpu5WMogOnUXj2xKcC6b8/CtzkuXYH8PMA0s6LLAF4W7Z9tqHvF76zSE64AyhSBlFOffraU8AXgk7XNvT9mmn1MX1MQ0qXUFYbwCuANyXlW0lE8kyiEkCVmCBLAN6Ql9l6nmA5RPJMZAng+57XzdmeQRUme0negSQpMQGyBPBf+NcFPiop70rgUc9rB/gXGRlLEYBt6O8DP/VcvkkzrYdk5B9nss/A2wX8oW3ob8nIX2ZAyFP4g0Ae00yrkRiepRM22e/9UPbPyz/JskPmUPDXgRcF1x8C3gI2SLQlajbgfmeR8/fjVplSkLlBRAa4F3hfcHsRsFSWLTFgKeKu8X7g1oreKjYftqG/gzsd7NtQusqk833b7YdJFDGBbwPX4W4nG9/dk+QxCHyVCJwPEe0PYBv6eeAPNdP6CnA/cBvuYUpziWO4ATLftA09iMjikoh0gwjb0F8G7s0eo/Y88MEo7ZHIi8Cu7A5qkRKLxaHZRs9c2kl6KA7Oh5gIoEp0VAUwx6kKYI5TFcAcpyqAOU5VAHOcqgDmOHESwJjndW0kVoSD97t4v2tkxEkA3qjY7qiWTAdJ9jt0ey7HJio6TgL4hee1CmyNwpCA2Yr/OXu/a2TEWQAAvyvdiuARfYeqAAQcxt0ibSq7NdPyxstVDFnbd3su9yJpF9BCiI0AbEMfBkzPZQXYq5nW5ghMKouszXvxr4g2s981FiiOE4tJKQA006oFXse/SGIMVxz/YBt6rGcNNdOaB/w5YOBv/b+JuyFUbHoBsRIAgGZavwH8d47b47jF5yv4VxtFTRPuaZ8byH3m3222oT8tz6SZiZ0AADTT+n3chRF1UdsSEKPAfbah/1vUhniJpQAANNPaBXwPaI3YlHLpBX7TNvQXojZERGwagV6yD2wHbkkgZefsgBnEtX1HXJ0PMS4BpqKZVhPwe8BfAisjNmcmjuOel/xt29Dj1k7xURECmEAzrceBB6Zesw090m3GNdPyPsAnbEP/RCTGlEBsq4Aqcgg0LFwzrVW4G0ItBbqyf40BZrE+wLTC4g7NtIK0cxB3r4AzuBtM7s8urgmEsqsAzbQ+CHwU+DB59tMNkfbsOQTS0UxrPhDFeecngB8CT9mG/lI5CZUkAM20VOBO3EbZjnIMCAALuFm2CLLOfxbQZeYr4Ke4O5d9P7sAtyiKFoBmWuuAbwE7i80sRKSKIEbOn8pPgHttQy/qvMGCBZDduvQTuFu+NszwdgCSCZVkbbDtzEwGBvyHLIIkEeRzfiqZQA24WT0ylmGk8ON0hnD3HHii0JVHBQkgW+T/M/BHud6Tqk+wIFVH27w6WufV0tpYS0NtriHx8jho9/KG+LDFUEWQz/nru5rYooUzaDk0Nk7v4Bi9V8bouTLKhYFRBoaFP4IJ/hX4WCFVwowCyM7QPQUIT8Wor61h07IWVnY0lnb6Q4kcONErOnARQhJBPuevW9TE1m55I9YOcPzcIIdOXhYdOzfBvwMfnWnmsZAC65sInF+jKmxY0sztm7tYJdn5AFu7W1m3qEl0SweezTosEOLkfHADDFZ1NHL75i42LGnOdeTeXbjxCPnTylcCaKb1MQTHvLWn6rhhzQIak+EU8cUQdkkQN+eLGBwZZ/+xC1wcEJ7C+ie2oX8112dzCkAzrY24u1VPa/A11Se4ZWMnyUR8BhHDEkElOH+CkXSGfa+/T7+/bTAMXG8buvDQi3xe/Boe5ydrVW5cvzBWzodwqoNKcj64Pa4b1y8U9brqcbegESL0pGZat+LZ0y+hKuxat5BUfaSbiuRka3craxcJlxEULYJ8zl+7KBU750+Qqk+wa91CEv42wc5spJWPXD/lv/Ve2L6yjfZUvAN0tnW3lS2CmZy/rbutbDvDpD1Vx/aVQhu9AbeAQADZsf1pCzIa6mrobg9yTic8yhFBpTt/gu72RhrqfA30LVnfTkNUAtzhvbC6oxGlgg73LkUEs8X5AIri+kyAz7czCkBRYFVH5S3R29bdxtrOwkSQ1/mdleX8CVZ1pEQ/Wp8ApnUDNdO6Gs+qlaVtDfzquvyHdMaZV97p4c33hfsvWrjn9kI+56+oPOdP8OLRC5zq8Z1mt8E29CMTL7wlgO+I1JXioqRi2LYif0nALHU+5PTdNB97BeCb4u1oSgZoUjRsW9HGmtwi8Dl/zSxwPuT03TQf5xVAU32CupgN+pTK9twimMaazhTbZ4HzAeoSKk3+cRuxALIbGVw99WZQ/f63zg1w6tIQ/cNpogxCnkkEUTvfcaB/OM2pniHeOhfMvtECH149deONqfLYimdN24JU+cW/48ArJ3rJZFzP16gK67ua2LSspey0S2HCwcc8DcOonX/o5GXeONPPePY5qarCqoXClnxRLEglOXFh2nraGlxf/ximVwG++j+IEmBgJD3pfIDxjCMaqpTK9hVtbFrWQrLWjVjatKwl8mI/oSqTzgfIZJxckU9FkcOHk76eWgJMC+5UFYW2xvL3aeq94o9HaJkX/f5PG5Y0c1WXO4GkFijIw+/1cfx88avUbryqg1SyRvj52zd3AeJn0ntlTFSHF0VbYy2qopCZXvdO+npq6tNKgIkPlsvlIb8AWhuiFwAU7vgJhtPjounWGclkMkBN3s+3CJ5J39AYBYZf5mTih+yJFZj0tQqgmdZiPGf2BNUA9AqgRlVojOmMYpSk6hO+yJ5ewY+nFAS+XJr1+WQbwBfbH0QDEOCypwpobqiVHj5WCSi4z2Yq3mdXKjl8uQN+WQWE0gB0HOjzFHktDZX762+pr6Wrtb7ozyVq1II+39KQoGfwl0V1X7bbXG5NnKch+J9CAeQYQCgabw8AxHVdpbC6M8XqAgaTSv2899lM9ATK9cXEgN7o9PUFOwHUbMz/tql3gqr/49oDiCu5egJBIPDpNs20VBW4CneDo3xvLok49wDiSO6eQPkIfNoEXKUiqP8DawBWewBFEWZPIIdPdyYQ9AAOv9eXK8y6KERx6i+8cb7sdOcSZ3qHeT6AZ5YeF07C7EggKAHO94+UnaGI8YzDmd7YbJJZEYymM2E+s50qnvq/ypxihYq762aVucn3EsB9uNucfAj/xsZVZidjuNvxPlFR28RVCZ7/B+dD9BT9/ABQAAAAAElFTkSuQmCC;" vertex="1" parent="1">
          <mxGeometry x="690" y="500" width="30" height="30" as="geometry" />
        </mxCell>
        <mxCell id="IXQjAg93TRmVaCYCpcYk-45" value="" style="shape=image;verticalLabelPosition=bottom;labelBackgroundColor=default;verticalAlign=top;aspect=fixed;imageAspect=0;image=data:image/png,iVBORw0KGgoAAAANSUhEUgAAAIAAAACACAYAAADDPmHLAAAABHNCSVQICAgIfAhkiAAAAAlwSFlzAAAD9AAAA/QBJxjN1gAAABl0RVh0U29mdHdhcmUAd3d3Lmlua3NjYXBlLm9yZ5vuPBoAABAJSURBVHic7Z19cBzlfcc/uzrpJOv0ZtmS5beV3w022OtXaEjHBEJDCzOUtkOHNoWWST0dmhLaadMC2eBtSCbptIGGpEmaNs7QZKadzKSZFtJxIBDwpEnAXkywizEYLza28ZtkvVhvp9v+sSdF2n3udC+7z+5J95nR2Ld79zy/29/3ntff8zyK4zhUmbskwkhUM62bgAeAtWGkHwMc4CJwJvv3M+Bp29B7I7WqBJSgSwDNtNqBU0B9oAnHnzHgBeBx29CfidiWglFDSPNO5p7zAWqBDwNPa6b1vGZa26M2qBDCEEBjCGlWGruA/9VM60+jNmQmQmkDeFnYlCRRo8jISgqOA/3DaQZH0vneVgN8STOtjcD9tqGPy7GuOKQIYOfKNpobamVkJZWRsQwXB0e5NDiKfeEKl4fGRG/bDYwCfybXusIIowqYMyRrVRa31rNxSTO3XtPJ1YubUcQF3cc10/pjyeYVRFUAAaGqCpuXt3DLhs5cpd2Tmmmtk23XTFQFEDDtqTp+bWMnqaSvdq0FPhuBSXmpCiAEamsUrls1X3TrTs20rpNtTz6qAgiJjuYk67uaRLd2y7YlH1UBhMimZS2iquB2zbRqorBHRFUAIVKjKnS1+gZF24EbIjBHSFUAIdOeqhNd1mXbkYuqAEJmfqNQAEtk25GLqgBCpqWhlhrVNzo0qwUw4L0wmp67QSeKAo1JX5uvLQpbRIQhgHe8Fy5dGQ0hm4omNjNjYUwGHfdeuDQwCp0h5FS5rNdM6/Hs/08DB4ADUUQUhSGAk8A47nQoAD2D1RLAg4YbMjeVEc20DODvZU4dB14F2IaeBvZPvdY7NMZoOhN0VrONJPB54EXNtBpkZRpWL2Dv1BeOAy+f6Akpq1nHrwCPycosLAF8FxicesG+cIV3L10JKbtZxwOaaW2TkVEoArANfQD4jvf6y8d7GB6LZWSUVLpa67n7umXcfd0yPnJNJ8vm+0p8FfiIDFvCHAj6JG54+CQj6Qw/PnqB/uG8sXRzivmNdexcOV80WFS5JQCAbeg9wD24iygmuTgwyjOvneXo2f6wsq446hIqC5uS3strZOQd6lCwbeg/Av7Oe30843DgRC/PHjnH2cvD1R4CiGIJpUwZy4gK/msgk/13Guf6RvhR33kAmuoTzG+so62xFjVHZGWlEueh8NAFYBu6A/yNZlrvAU+Qo9TpH07TP5zGvhi2RVWmIm020Db0J4Evy8qvSmHIng6uVvYxoxoPMMeRsjQsH7dtWgTAz473cL5/ZOqtd4Bfj8KmEHgGWBG1ESIiF8DEKhrB4tFR29DfkG5QCGimFdvp0GoVEBMyGV9XUYpoqgKICQMjvjmSt2XkWxVADBhNZ0R7DRyTkXdVADHg/84I50UOy8i7KoCIuTw0JpoY68GNqQgd2QK45Lswh+MF+4fTPHfkPOlxXwPwa7ahD4o+EzSyBeBr2Bx+r2/OzQamxx0OnbzMM6+dFQXI9AL/KMsW2eMAPwCGgMkQmJOXhjjde1oUEDFrOd8/4h30miAN/LZt6Gdk2SK1BLAN/RLwde/18Ywz50qBHNxvG/pzMjOMYiTwr4DtuNGvZbPq8wda0iM1O4DFGSdjnfr0ll84niikoFBAWbrn4DWqourA6URy/Odvf3Lr5QCSPgnstg39BwGkVRTSewG2oY8CtwDfKDetbtO6Lz2ivgvOPnD2qopyaLlpvbTsM68GHk617DOvrlluWi+pinIInL3g7EuPqO92m9Z9ZSb9P8DGKJwPEXUDsy3ctynjl7rcPHiX44qo2XPrA2rG2dex50iqHBun0rHnSErNOPuAD3huNTvwjeXmwbvKSP5mwNBMKzB7i0G6ADTTSmqm9S3gc5S4SFLZg6qgPJnnLd3zlJEHSzJQQDat7pz2oDyp7Cn5WSaAvwAOaqa1uMQ0SkaqADTTWgg8B/xBOemsqHltDbAg75uUYNoYBaa1IGtTOawBntdMa1GZ6RSF7BLgK/iLUYCzeNYQ5CPtZLzFvg/H8VUNJVNIWoXYNIVTuN/Zy1rg20WkUzbSBKCZ1hbgtwS3Pguspoixbyc19DruCuScKI7zalEGlpfWeNamQjmM+51FG0d+SDOtu4tIqyxklgCP4a/zH7YN/eFihz1PPnj9kOM4X8zzlmG1JhHYaFo2reFc9x3H+eLJB68fKiZN29AHbUN/GHhYcPtzmmlJGRmTIgDNtG7Av9btOdvQS946NTm/+REU4YRJH4pzz/FHrj1aatpejj9y7VEU5x6gz3dT4bvJ+c2PlJp29hl4B3+W446VhI6sgSDRvniPlpPgsY+vHgF+p9u0bsXhZmCxozrWeCbxnVPGtQW3JwrF/tSW/1i657Wf1Kjpu5WMogOnUXj2xKcC6b8/CtzkuXYH8PMA0s6LLAF4W7Z9tqHvF76zSE64AyhSBlFOffraU8AXgk7XNvT9mmn1MX1MQ0qXUFYbwCuANyXlW0lE8kyiEkCVmCBLAN6Ql9l6nmA5RPJMZAng+57XzdmeQRUme0negSQpMQGyBPBf+NcFPiop70rgUc9rB/gXGRlLEYBt6O8DP/VcvkkzrYdk5B9nss/A2wX8oW3ob8nIX2ZAyFP4g0Ae00yrkRiepRM22e/9UPbPyz/JskPmUPDXgRcF1x8C3gI2SLQlajbgfmeR8/fjVplSkLlBRAa4F3hfcHsRsFSWLTFgKeKu8X7g1oreKjYftqG/gzsd7NtQusqk833b7YdJFDGBbwPX4W4nG9/dk+QxCHyVCJwPEe0PYBv6eeAPNdP6CnA/cBvuYUpziWO4ATLftA09iMjikoh0gwjb0F8G7s0eo/Y88MEo7ZHIi8Cu7A5qkRKLxaHZRs9c2kl6KA7Oh5gIoEp0VAUwx6kKYI5TFcAcpyqAOU5VAHOcqgDmOHESwJjndW0kVoSD97t4v2tkxEkA3qjY7qiWTAdJ9jt0ey7HJio6TgL4hee1CmyNwpCA2Yr/OXu/a2TEWQAAvyvdiuARfYeqAAQcxt0ibSq7NdPyxstVDFnbd3su9yJpF9BCiI0AbEMfBkzPZQXYq5nW5ghMKouszXvxr4g2s981FiiOE4tJKQA006oFXse/SGIMVxz/YBt6rGcNNdOaB/w5YOBv/b+JuyFUbHoBsRIAgGZavwH8d47b47jF5yv4VxtFTRPuaZ8byH3m3222oT8tz6SZiZ0AADTT+n3chRF1UdsSEKPAfbah/1vUhniJpQAANNPaBXwPaI3YlHLpBX7TNvQXojZERGwagV6yD2wHbkkgZefsgBnEtX1HXJ0PMS4BpqKZVhPwe8BfAisjNmcmjuOel/xt29Dj1k7xURECmEAzrceBB6Zesw090m3GNdPyPsAnbEP/RCTGlEBsq4Aqcgg0LFwzrVW4G0ItBbqyf40BZrE+wLTC4g7NtIK0cxB3r4AzuBtM7s8urgmEsqsAzbQ+CHwU+DB59tMNkfbsOQTS0UxrPhDFeecngB8CT9mG/lI5CZUkAM20VOBO3EbZjnIMCAALuFm2CLLOfxbQZeYr4Ke4O5d9P7sAtyiKFoBmWuuAbwE7i80sRKSKIEbOn8pPgHttQy/qvMGCBZDduvQTuFu+NszwdgCSCZVkbbDtzEwGBvyHLIIkEeRzfiqZQA24WT0ylmGk8ON0hnD3HHii0JVHBQkgW+T/M/BHud6Tqk+wIFVH27w6WufV0tpYS0NtriHx8jho9/KG+LDFUEWQz/nru5rYooUzaDk0Nk7v4Bi9V8bouTLKhYFRBoaFP4IJ/hX4WCFVwowCyM7QPQUIT8Wor61h07IWVnY0lnb6Q4kcONErOnARQhJBPuevW9TE1m55I9YOcPzcIIdOXhYdOzfBvwMfnWnmsZAC65sInF+jKmxY0sztm7tYJdn5AFu7W1m3qEl0SweezTosEOLkfHADDFZ1NHL75i42LGnOdeTeXbjxCPnTylcCaKb1MQTHvLWn6rhhzQIak+EU8cUQdkkQN+eLGBwZZ/+xC1wcEJ7C+ie2oX8112dzCkAzrY24u1VPa/A11Se4ZWMnyUR8BhHDEkElOH+CkXSGfa+/T7+/bTAMXG8buvDQi3xe/Boe5ydrVW5cvzBWzodwqoNKcj64Pa4b1y8U9brqcbegESL0pGZat+LZ0y+hKuxat5BUfaSbiuRka3craxcJlxEULYJ8zl+7KBU750+Qqk+wa91CEv42wc5spJWPXD/lv/Ve2L6yjfZUvAN0tnW3lS2CmZy/rbutbDvDpD1Vx/aVQhu9AbeAQADZsf1pCzIa6mrobg9yTic8yhFBpTt/gu72RhrqfA30LVnfTkNUAtzhvbC6oxGlgg73LkUEs8X5AIri+kyAz7czCkBRYFVH5S3R29bdxtrOwkSQ1/mdleX8CVZ1pEQ/Wp8ApnUDNdO6Gs+qlaVtDfzquvyHdMaZV97p4c33hfsvWrjn9kI+56+oPOdP8OLRC5zq8Z1mt8E29CMTL7wlgO+I1JXioqRi2LYif0nALHU+5PTdNB97BeCb4u1oSgZoUjRsW9HGmtwi8Dl/zSxwPuT03TQf5xVAU32CupgN+pTK9twimMaazhTbZ4HzAeoSKk3+cRuxALIbGVw99WZQ/f63zg1w6tIQ/cNpogxCnkkEUTvfcaB/OM2pniHeOhfMvtECH149deONqfLYimdN24JU+cW/48ArJ3rJZFzP16gK67ua2LSspey0S2HCwcc8DcOonX/o5GXeONPPePY5qarCqoXClnxRLEglOXFh2nraGlxf/ximVwG++j+IEmBgJD3pfIDxjCMaqpTK9hVtbFrWQrLWjVjatKwl8mI/oSqTzgfIZJxckU9FkcOHk76eWgJMC+5UFYW2xvL3aeq94o9HaJkX/f5PG5Y0c1WXO4GkFijIw+/1cfx88avUbryqg1SyRvj52zd3AeJn0ntlTFSHF0VbYy2qopCZXvdO+npq6tNKgIkPlsvlIb8AWhuiFwAU7vgJhtPjounWGclkMkBN3s+3CJ5J39AYBYZf5mTih+yJFZj0tQqgmdZiPGf2BNUA9AqgRlVojOmMYpSk6hO+yJ5ewY+nFAS+XJr1+WQbwBfbH0QDEOCypwpobqiVHj5WCSi4z2Yq3mdXKjl8uQN+WQWE0gB0HOjzFHktDZX762+pr6Wrtb7ozyVq1II+39KQoGfwl0V1X7bbXG5NnKch+J9CAeQYQCgabw8AxHVdpbC6M8XqAgaTSv2899lM9ATK9cXEgN7o9PUFOwHUbMz/tql3gqr/49oDiCu5egJBIPDpNs20VBW4CneDo3xvLok49wDiSO6eQPkIfNoEXKUiqP8DawBWewBFEWZPIIdPdyYQ9AAOv9eXK8y6KERx6i+8cb7sdOcSZ3qHeT6AZ5YeF07C7EggKAHO94+UnaGI8YzDmd7YbJJZEYymM2E+s50qnvq/ypxihYq762aVucn3EsB9uNucfAj/xsZVZidjuNvxPlFR28RVCZ7/B+dD9BT9/ABQAAAAAElFTkSuQmCC;" vertex="1" parent="1">
          <mxGeometry x="720" y="517" width="30" height="30" as="geometry" />
        </mxCell>
        <mxCell id="IXQjAg93TRmVaCYCpcYk-48" value="" style="shape=image;verticalLabelPosition=bottom;labelBackgroundColor=default;verticalAlign=top;aspect=fixed;imageAspect=0;image=data:image/png,iVBORw0KGgoAAAANSUhEUgAAAIAAAACACAYAAADDPmHLAAAABHNCSVQICAgIfAhkiAAAAAlwSFlzAAAD9AAAA/QBJxjN1gAAABl0RVh0U29mdHdhcmUAd3d3Lmlua3NjYXBlLm9yZ5vuPBoAABAJSURBVHic7Z19cBzlfcc/uzrpJOv0ZtmS5beV3w022OtXaEjHBEJDCzOUtkOHNoWWST0dmhLaadMC2eBtSCbptIGGpEmaNs7QZKadzKSZFtJxIBDwpEnAXkywizEYLza28ZtkvVhvp9v+sSdF2n3udC+7z+5J95nR2Ld79zy/29/3ntff8zyK4zhUmbskwkhUM62bgAeAtWGkHwMc4CJwJvv3M+Bp29B7I7WqBJSgSwDNtNqBU0B9oAnHnzHgBeBx29CfidiWglFDSPNO5p7zAWqBDwNPa6b1vGZa26M2qBDCEEBjCGlWGruA/9VM60+jNmQmQmkDeFnYlCRRo8jISgqOA/3DaQZH0vneVgN8STOtjcD9tqGPy7GuOKQIYOfKNpobamVkJZWRsQwXB0e5NDiKfeEKl4fGRG/bDYwCfybXusIIowqYMyRrVRa31rNxSTO3XtPJ1YubUcQF3cc10/pjyeYVRFUAAaGqCpuXt3DLhs5cpd2Tmmmtk23XTFQFEDDtqTp+bWMnqaSvdq0FPhuBSXmpCiAEamsUrls1X3TrTs20rpNtTz6qAgiJjuYk67uaRLd2y7YlH1UBhMimZS2iquB2zbRqorBHRFUAIVKjKnS1+gZF24EbIjBHSFUAIdOeqhNd1mXbkYuqAEJmfqNQAEtk25GLqgBCpqWhlhrVNzo0qwUw4L0wmp67QSeKAo1JX5uvLQpbRIQhgHe8Fy5dGQ0hm4omNjNjYUwGHfdeuDQwCp0h5FS5rNdM6/Hs/08DB4ADUUQUhSGAk8A47nQoAD2D1RLAg4YbMjeVEc20DODvZU4dB14F2IaeBvZPvdY7NMZoOhN0VrONJPB54EXNtBpkZRpWL2Dv1BeOAy+f6Akpq1nHrwCPycosLAF8FxicesG+cIV3L10JKbtZxwOaaW2TkVEoArANfQD4jvf6y8d7GB6LZWSUVLpa67n7umXcfd0yPnJNJ8vm+0p8FfiIDFvCHAj6JG54+CQj6Qw/PnqB/uG8sXRzivmNdexcOV80WFS5JQCAbeg9wD24iygmuTgwyjOvneXo2f6wsq446hIqC5uS3strZOQd6lCwbeg/Av7Oe30843DgRC/PHjnH2cvD1R4CiGIJpUwZy4gK/msgk/13Guf6RvhR33kAmuoTzG+so62xFjVHZGWlEueh8NAFYBu6A/yNZlrvAU+Qo9TpH07TP5zGvhi2RVWmIm020Db0J4Evy8qvSmHIng6uVvYxoxoPMMeRsjQsH7dtWgTAz473cL5/ZOqtd4Bfj8KmEHgGWBG1ESIiF8DEKhrB4tFR29DfkG5QCGimFdvp0GoVEBMyGV9XUYpoqgKICQMjvjmSt2XkWxVADBhNZ0R7DRyTkXdVADHg/84I50UOy8i7KoCIuTw0JpoY68GNqQgd2QK45Lswh+MF+4fTPHfkPOlxXwPwa7ahD4o+EzSyBeBr2Bx+r2/OzQamxx0OnbzMM6+dFQXI9AL/KMsW2eMAPwCGgMkQmJOXhjjde1oUEDFrOd8/4h30miAN/LZt6Gdk2SK1BLAN/RLwde/18Ywz50qBHNxvG/pzMjOMYiTwr4DtuNGvZbPq8wda0iM1O4DFGSdjnfr0ll84niikoFBAWbrn4DWqourA6URy/Odvf3Lr5QCSPgnstg39BwGkVRTSewG2oY8CtwDfKDetbtO6Lz2ivgvOPnD2qopyaLlpvbTsM68GHk617DOvrlluWi+pinIInL3g7EuPqO92m9Z9ZSb9P8DGKJwPEXUDsy3ctynjl7rcPHiX44qo2XPrA2rG2dex50iqHBun0rHnSErNOPuAD3huNTvwjeXmwbvKSP5mwNBMKzB7i0G6ADTTSmqm9S3gc5S4SFLZg6qgPJnnLd3zlJEHSzJQQDat7pz2oDyp7Cn5WSaAvwAOaqa1uMQ0SkaqADTTWgg8B/xBOemsqHltDbAg75uUYNoYBaa1IGtTOawBntdMa1GZ6RSF7BLgK/iLUYCzeNYQ5CPtZLzFvg/H8VUNJVNIWoXYNIVTuN/Zy1rg20WkUzbSBKCZ1hbgtwS3Pguspoixbyc19DruCuScKI7zalEGlpfWeNamQjmM+51FG0d+SDOtu4tIqyxklgCP4a/zH7YN/eFihz1PPnj9kOM4X8zzlmG1JhHYaFo2reFc9x3H+eLJB68fKiZN29AHbUN/GHhYcPtzmmlJGRmTIgDNtG7Av9btOdvQS946NTm/+REU4YRJH4pzz/FHrj1aatpejj9y7VEU5x6gz3dT4bvJ+c2PlJp29hl4B3+W446VhI6sgSDRvniPlpPgsY+vHgF+p9u0bsXhZmCxozrWeCbxnVPGtQW3JwrF/tSW/1i657Wf1Kjpu5WMogOnUXj2xKcC6b8/CtzkuXYH8PMA0s6LLAF4W7Z9tqHvF76zSE64AyhSBlFOffraU8AXgk7XNvT9mmn1MX1MQ0qXUFYbwCuANyXlW0lE8kyiEkCVmCBLAN6Ql9l6nmA5RPJMZAng+57XzdmeQRUme0negSQpMQGyBPBf+NcFPiop70rgUc9rB/gXGRlLEYBt6O8DP/VcvkkzrYdk5B9nss/A2wX8oW3ob8nIX2ZAyFP4g0Ae00yrkRiepRM22e/9UPbPyz/JskPmUPDXgRcF1x8C3gI2SLQlajbgfmeR8/fjVplSkLlBRAa4F3hfcHsRsFSWLTFgKeKu8X7g1oreKjYftqG/gzsd7NtQusqk833b7YdJFDGBbwPX4W4nG9/dk+QxCHyVCJwPEe0PYBv6eeAPNdP6CnA/cBvuYUpziWO4ATLftA09iMjikoh0gwjb0F8G7s0eo/Y88MEo7ZHIi8Cu7A5qkRKLxaHZRs9c2kl6KA7Oh5gIoEp0VAUwx6kKYI5TFcAcpyqAOU5VAHOcqgDmOHESwJjndW0kVoSD97t4v2tkxEkA3qjY7qiWTAdJ9jt0ey7HJio6TgL4hee1CmyNwpCA2Yr/OXu/a2TEWQAAvyvdiuARfYeqAAQcxt0ibSq7NdPyxstVDFnbd3su9yJpF9BCiI0AbEMfBkzPZQXYq5nW5ghMKouszXvxr4g2s981FiiOE4tJKQA006oFXse/SGIMVxz/YBt6rGcNNdOaB/w5YOBv/b+JuyFUbHoBsRIAgGZavwH8d47b47jF5yv4VxtFTRPuaZ8byH3m3222oT8tz6SZiZ0AADTT+n3chRF1UdsSEKPAfbah/1vUhniJpQAANNPaBXwPaI3YlHLpBX7TNvQXojZERGwagV6yD2wHbkkgZefsgBnEtX1HXJ0PMS4BpqKZVhPwe8BfAisjNmcmjuOel/xt29Dj1k7xURECmEAzrceBB6Zesw090m3GNdPyPsAnbEP/RCTGlEBsq4Aqcgg0LFwzrVW4G0ItBbqyf40BZrE+wLTC4g7NtIK0cxB3r4AzuBtM7s8urgmEsqsAzbQ+CHwU+DB59tMNkfbsOQTS0UxrPhDFeecngB8CT9mG/lI5CZUkAM20VOBO3EbZjnIMCAALuFm2CLLOfxbQZeYr4Ke4O5d9P7sAtyiKFoBmWuuAbwE7i80sRKSKIEbOn8pPgHttQy/qvMGCBZDduvQTuFu+NszwdgCSCZVkbbDtzEwGBvyHLIIkEeRzfiqZQA24WT0ylmGk8ON0hnD3HHii0JVHBQkgW+T/M/BHud6Tqk+wIFVH27w6WufV0tpYS0NtriHx8jho9/KG+LDFUEWQz/nru5rYooUzaDk0Nk7v4Bi9V8bouTLKhYFRBoaFP4IJ/hX4WCFVwowCyM7QPQUIT8Wor61h07IWVnY0lnb6Q4kcONErOnARQhJBPuevW9TE1m55I9YOcPzcIIdOXhYdOzfBvwMfnWnmsZAC65sInF+jKmxY0sztm7tYJdn5AFu7W1m3qEl0SweezTosEOLkfHADDFZ1NHL75i42LGnOdeTeXbjxCPnTylcCaKb1MQTHvLWn6rhhzQIak+EU8cUQdkkQN+eLGBwZZ/+xC1wcEJ7C+ie2oX8112dzCkAzrY24u1VPa/A11Se4ZWMnyUR8BhHDEkElOH+CkXSGfa+/T7+/bTAMXG8buvDQi3xe/Boe5ydrVW5cvzBWzodwqoNKcj64Pa4b1y8U9brqcbegESL0pGZat+LZ0y+hKuxat5BUfaSbiuRka3craxcJlxEULYJ8zl+7KBU750+Qqk+wa91CEv42wc5spJWPXD/lv/Ve2L6yjfZUvAN0tnW3lS2CmZy/rbutbDvDpD1Vx/aVQhu9AbeAQADZsf1pCzIa6mrobg9yTic8yhFBpTt/gu72RhrqfA30LVnfTkNUAtzhvbC6oxGlgg73LkUEs8X5AIri+kyAz7czCkBRYFVH5S3R29bdxtrOwkSQ1/mdleX8CVZ1pEQ/Wp8ApnUDNdO6Gs+qlaVtDfzquvyHdMaZV97p4c33hfsvWrjn9kI+56+oPOdP8OLRC5zq8Z1mt8E29CMTL7wlgO+I1JXioqRi2LYif0nALHU+5PTdNB97BeCb4u1oSgZoUjRsW9HGmtwi8Dl/zSxwPuT03TQf5xVAU32CupgN+pTK9twimMaazhTbZ4HzAeoSKk3+cRuxALIbGVw99WZQ/f63zg1w6tIQ/cNpogxCnkkEUTvfcaB/OM2pniHeOhfMvtECH149deONqfLYimdN24JU+cW/48ArJ3rJZFzP16gK67ua2LSspey0S2HCwcc8DcOonX/o5GXeONPPePY5qarCqoXClnxRLEglOXFh2nraGlxf/ximVwG++j+IEmBgJD3pfIDxjCMaqpTK9hVtbFrWQrLWjVjatKwl8mI/oSqTzgfIZJxckU9FkcOHk76eWgJMC+5UFYW2xvL3aeq94o9HaJkX/f5PG5Y0c1WXO4GkFijIw+/1cfx88avUbryqg1SyRvj52zd3AeJn0ntlTFSHF0VbYy2qopCZXvdO+npq6tNKgIkPlsvlIb8AWhuiFwAU7vgJhtPjounWGclkMkBN3s+3CJ5J39AYBYZf5mTih+yJFZj0tQqgmdZiPGf2BNUA9AqgRlVojOmMYpSk6hO+yJ5ewY+nFAS+XJr1+WQbwBfbH0QDEOCypwpobqiVHj5WCSi4z2Yq3mdXKjl8uQN+WQWE0gB0HOjzFHktDZX762+pr6Wrtb7ozyVq1II+39KQoGfwl0V1X7bbXG5NnKch+J9CAeQYQCgabw8AxHVdpbC6M8XqAgaTSv2899lM9ATK9cXEgN7o9PUFOwHUbMz/tql3gqr/49oDiCu5egJBIPDpNs20VBW4CneDo3xvLok49wDiSO6eQPkIfNoEXKUiqP8DawBWewBFEWZPIIdPdyYQ9AAOv9eXK8y6KERx6i+8cb7sdOcSZ3qHeT6AZ5YeF07C7EggKAHO94+UnaGI8YzDmd7YbJJZEYymM2E+s50qnvq/ypxihYq762aVucn3EsB9uNucfAj/xsZVZidjuNvxPlFR28RVCZ7/B+dD9BT9/ABQAAAAAElFTkSuQmCC;" vertex="1" parent="1">
          <mxGeometry x="749" y="538" width="30" height="30" as="geometry" />
        </mxCell>
        <mxCell id="IXQjAg93TRmVaCYCpcYk-49" value="&lt;b&gt;.......&lt;/b&gt;" style="text;html=1;strokeColor=none;fillColor=none;align=center;verticalAlign=middle;whiteSpace=wrap;rounded=0;" vertex="1" parent="1">
          <mxGeometry x="476" y="410" width="60" height="30" as="geometry" />
        </mxCell>
        <mxCell id="IXQjAg93TRmVaCYCpcYk-50" value="&lt;b&gt;.......&lt;/b&gt;" style="text;html=1;strokeColor=none;fillColor=none;align=center;verticalAlign=middle;whiteSpace=wrap;rounded=0;" vertex="1" parent="1">
          <mxGeometry x="749" y="720" width="60" height="30" as="geometry" />
        </mxCell>
        <mxCell id="IXQjAg93TRmVaCYCpcYk-53" style="edgeStyle=orthogonalEdgeStyle;rounded=0;orthogonalLoop=1;jettySize=auto;html=1;exitX=0.75;exitY=0;exitDx=0;exitDy=0;entryX=0;entryY=0.5;entryDx=0;entryDy=0;strokeWidth=3;" edge="1" parent="1" source="IXQjAg93TRmVaCYCpcYk-1" target="IXQjAg93TRmVaCYCpcYk-7">
          <mxGeometry relative="1" as="geometry" />
        </mxCell>
        <mxCell id="IXQjAg93TRmVaCYCpcYk-56" style="edgeStyle=orthogonalEdgeStyle;rounded=0;orthogonalLoop=1;jettySize=auto;html=1;exitX=1;exitY=0.25;exitDx=0;exitDy=0;entryX=0;entryY=0.5;entryDx=0;entryDy=0;" edge="1" parent="1" source="IXQjAg93TRmVaCYCpcYk-18" target="IXQjAg93TRmVaCYCpcYk-26">
          <mxGeometry relative="1" as="geometry">
            <Array as="points">
              <mxPoint x="184" y="303" />
              <mxPoint x="184" y="283" />
            </Array>
          </mxGeometry>
        </mxCell>
        <mxCell id="IXQjAg93TRmVaCYCpcYk-60" style="edgeStyle=orthogonalEdgeStyle;rounded=0;orthogonalLoop=1;jettySize=auto;html=1;exitX=1;exitY=0.5;exitDx=0;exitDy=0;entryX=-0.001;entryY=0.21;entryDx=0;entryDy=0;entryPerimeter=0;strokeWidth=3;" edge="1" parent="1" source="IXQjAg93TRmVaCYCpcYk-26" target="IXQjAg93TRmVaCYCpcYk-7">
          <mxGeometry relative="1" as="geometry">
            <Array as="points">
              <mxPoint x="410" y="283" />
              <mxPoint x="410" y="556" />
            </Array>
          </mxGeometry>
        </mxCell>
        <mxCell id="IXQjAg93TRmVaCYCpcYk-62" value="실시간 영상" style="edgeLabel;html=1;align=center;verticalAlign=middle;resizable=0;points=[];" vertex="1" connectable="0" parent="1">
          <mxGeometry x="446.9997536937772" y="453.0044827586207" as="geometry" />
        </mxCell>
        <mxCell id="IXQjAg93TRmVaCYCpcYk-68" value="" style="rounded=0;whiteSpace=wrap;html=1;" vertex="1" parent="1">
          <mxGeometry x="120" y="770" width="100" height="80" as="geometry" />
        </mxCell>
        <mxCell id="IXQjAg93TRmVaCYCpcYk-66" value="" style="shape=image;verticalLabelPosition=bottom;labelBackgroundColor=default;verticalAlign=top;aspect=fixed;imageAspect=0;image=https://assets-global.website-files.com/601064f495f4b4967f921aa9/635884ad45bd4b4723f4bc39_202210-rds-logo.png;" vertex="1" parent="1">
          <mxGeometry x="124.75" y="774" width="69.1" height="30" as="geometry" />
        </mxCell>
        <mxCell id="IXQjAg93TRmVaCYCpcYk-64" value="" style="shape=image;verticalLabelPosition=bottom;labelBackgroundColor=default;verticalAlign=top;aspect=fixed;imageAspect=0;image=https://global-uploads.webflow.com/5f8b0a1abe69652278dad51c/62607c54ab9261eeba9c221a_e7535ad6.png;" vertex="1" parent="1">
          <mxGeometry x="173" y="810" width="38" height="38" as="geometry" />
        </mxCell>
        <mxCell id="IXQjAg93TRmVaCYCpcYk-71" value="" style="rounded=0;whiteSpace=wrap;html=1;" vertex="1" parent="1">
          <mxGeometry x="230" y="769.5" width="120" height="80.5" as="geometry" />
        </mxCell>
        <mxCell id="IXQjAg93TRmVaCYCpcYk-69" value="" style="shape=image;verticalLabelPosition=bottom;labelBackgroundColor=default;verticalAlign=top;aspect=fixed;imageAspect=0;image=https://blog.kakaocdn.net/dn/lo3oz/btqL7RbiciD/jTgdVG0ZzeoVATFqL8tFmK/img.png;" vertex="1" parent="1">
          <mxGeometry x="231.67" y="772" width="53.33" height="40" as="geometry" />
        </mxCell>
        <mxCell id="IXQjAg93TRmVaCYCpcYk-70" value="" style="shape=image;verticalLabelPosition=bottom;labelBackgroundColor=default;verticalAlign=top;aspect=fixed;imageAspect=0;image=https://cloudiofy.com/wp-content/uploads/2020/05/s3-bucket.png;" vertex="1" parent="1">
          <mxGeometry x="294.64" y="793.45" width="55.36" height="54.55" as="geometry" />
        </mxCell>
        <mxCell id="IXQjAg93TRmVaCYCpcYk-72" value="실시간 &lt;br&gt;영상 보기" style="rounded=0;whiteSpace=wrap;html=1;" vertex="1" parent="1">
          <mxGeometry x="544" y="560" width="64" height="53.48" as="geometry" />
        </mxCell>
        <mxCell id="IXQjAg93TRmVaCYCpcYk-73" value="탐지&lt;br&gt;영상 보기" style="rounded=0;whiteSpace=wrap;html=1;" vertex="1" parent="1">
          <mxGeometry x="629" y="560" width="64" height="53.48" as="geometry" />
        </mxCell>
        <mxCell id="IXQjAg93TRmVaCYCpcYk-74" value="탐지 결과 모니터링&lt;br&gt;및 결과 조회" style="rounded=0;whiteSpace=wrap;html=1;" vertex="1" parent="1">
          <mxGeometry x="544" y="632" width="149" height="40" as="geometry" />
        </mxCell>
      </root>
    </mxGraphModel>
  </diagram>
</mxfile>
